Jonah Hex (2010) 1080p       



Verenigde Staten
Western / Horror
81 minuten

geregisseerd door Jimmy Hayward
met Josh Brolin, Megan Fox en John Malkovich

Jonah Hex (Josh Brolin), een man met een vervormd gezicht, trekt door het Wilde Westen om de voodoobeoefenaar Quentin Turnbull (John Malkovich) te pakken te krijgen. Dit voordat Turnbull samen met een leger 'ondoden' vreselijke plannen kan gaan uitvoeren.

English

The U.S. military makes a scarred bounty hunter with warrants on his own head an offer he cannot refuse: in exchange for his freedom, he must stop a terrorist who is ready to unleash Hell on Earth. 

**********************************************************************************

Extra Info:

Source..............: Jonah Hex 2010 Bluray 1080p DTS x264-CHD
Bitrate.............: 12,4 Mbps

Audio
Formaat.............: DTS
Bitrate.............: 1510 Kbps
Kanaal(en)..........: 6 kanalen
Kanaalposities......: Front: L C R, Side: L R, LFE

Formaat.............: DD5.1
Bitrate.............: 448 Kbps
Kanaal(en)..........: 6 kanalen
Kanaalposities......: Front: L C R, Side: L R, LFE


Ondertiteling.......: Nederlands
Vertaling...........: SRT

Controle en Sync....: Guiker
Bewerking Source....: Guiker

**********************************************************************************
Spotinformatie 
Categorie : Beeld 
Formaat : x264HD 
Bron : Retail
 
Ondertitels : Nederlands (instelbaar)

Format                           : Matroska
File size                        : 8.19 GiB
Duration                         : 1h 21mn
Overall bit rate                 : 14.4 Mbps
Encoded date                     : UTC 2010-10-02 20:31:43
Writing application              : mkvmerge v4.3.0 ('Escape from the Island') gemaakt op Sep  5 2010 10:30:51
Writing library                  : libebml v1.0.0 + libmatroska v1.0.0

Video
ID                               : 1
Format                           : AVC
Format/Info                      : Advanced Video Codec
Format profile                   : High@L4.1
Format settings, CABAC           : Yes
Format settings, ReFrames        : 6 frames
Muxing mode                      : Container profile=Unknown@4.1
Codec ID                         : V_MPEG4/ISO/AVC
Duration                         : 1h 21mn
Bit rate                         : 12.4 Mbps
Width                            : 1 920 pixels
Height                           : 800 pixels
Display aspect ratio             : 2.40:1
Frame rate                       : 23.976 fps
Color space                      : YUV
Chroma subsampling               : 4:2:0
Bit depth                        : 8 bits
Scan type                        : Progressive
Bits/(Pixel*Frame)               : 0.337
Stream size                      : 6.91 GiB (84%)
Title                            : Jonah.Hex.2010.Bluray.1080p.DTS.x264-CHD
Writing library                  : x264 core 84 r1416 fcf70c2
Encoding settings                : cabac=1 / ref=6 / deblock=1:-3:-3 / analyse=0x3:0x113 / me=umh / subme=10 / psy=1 / psy_rd=1.0:0.1 / mixed_ref=1 / me_range=64 / chroma_me=1 / trellis=2 / 8x8dct=1 / cqm=2 / deadzone=21,11 / fast_pskip=0 / chroma_qp_offset=-2 / threads=12 / sliced_threads=0 / nr=0 / decimate=1 / mbaff=0 / constrained_intra=0 / bframes=5 / b_pyramid=2 / b_adapt=2 / b_bias=0 / direct=3 / wpredb=1 / wpredp=2 / keyint=250 / keyint_min=25 / scenecut=40 / intra_refresh=0 / rc_lookahead=60 / rc=2pass / mbtree=1 / bitrate=12421 / ratetol=2.0 / qcomp=0.70 / qpmin=10 / qpmax=51 / qpstep=4 / cplxblur=20.0 / qblur=0.5 / vbv_maxrate=50000 / vbv_bufsize=50000 / ip_ratio=1.40 / aq=1:1.00
Language                         : English

Audio #1
ID                               : 2
Format                           : DTS
Format/Info                      : Digital Theater Systems
Codec ID                         : A_DTS
Duration                         : 1h 21mn
Bit rate mode                    : Constant
Bit rate                         : 1 510 Kbps
Channel(s)                       : 6 channels
Channel positions                : Front: L C R, Side: L R, LFE
Sampling rate                    : 48.0 KHz
Bit depth                        : 24 bits
Stream size                      : 880 MiB (10%)
Title                            : Jonah.Hex.2010.DTS-HD.MA Core_1509kbps
Language                         : English

Audio #2
ID                               : 3
Format                           : AC-3
Format/Info                      : Audio Coding 3
Mode extension                   : CM (complete main)
Codec ID                         : A_AC3
Duration                         : 1h 21mn
Bit rate mode                    : Constant
Bit rate                         : 448 Kbps
Channel(s)                       : 6 channels
Channel positions                : Front: L C R, Side: L R, LFE
Sampling rate                    : 48.0 KHz
Bit depth                        : 16 bits
Stream size                      : 261 MiB (3%)
Language                         : English

Text
ID                               : 4
Format                           : UTF-8
Codec ID                         : S_TEXT/UTF8
Codec ID/Info                    : UTF-8 Plain Text
Language                         : Dutch


 
Genre : Horror
Western
 
Weblink :  http://www.moviemeter.nl/film/59139
Weblink :  http://www.imdb.com/title/tt1075747 

*****************************************

Brought to you by 
2Lions Team

meer zien??
Kom dan eens kijken op ons Forum 
                 
http://www.2lions-site.nl  

2Lions the site to be for all your Dutch MOVIES and more

******************************************


DON T HIT AND RUN Niet gelijk afhaken als de FILM binnen is blijf seeden. 

Don`t quit after you finished the download, but keep seeding


There are fake torrents from uploaders who use our team name.
Those are not ours, or members from our team.
We 2Lions-Team are not responsible for the fake posts on our name

Wij 2Lions-Team zijn niet verantwoordelijk voor die zieke FAKE posten die op onze naam worden gedaan

Please check our site !!!
To the fakers Get a Live



 
 
 
